<svg width="36" height="36" viewBox="0 0 36 36" fill="none" xmlns="http://www.w3.org/2000/svg">
<path d="M29.4975 25.2165C29.0821 26.1848 28.5689 27.1081 27.966 27.972C27.1605 29.1225 26.499 29.9175 25.992 30.36C25.2045 31.083 24.3585 31.455 23.454 31.476C22.806 31.476 22.023 31.2915 21.111 30.9165C20.196 30.543 19.356 30.36 18.5865 30.36C17.781 30.36 16.917 30.543 15.9915 30.9165C15.0675 31.2915 14.3205 31.488 13.749 31.506C12.8835 31.5435 12.018 31.1625 11.1555 30.36C10.605 29.88 9.91647 29.055 9.08997 27.888C8.20497 26.6445 7.47747 25.197 6.90747 23.5515C6.29697 21.771 5.99097 20.049 5.99097 18.381C5.99097 16.4715 6.40347 14.823 7.22997 13.443C7.85509 12.3592 8.74879 11.4547 9.82497 10.8165C10.8862 10.18 12.0976 9.83732 13.335 9.82353C14.025 9.82353 14.9295 10.0365 16.05 10.4565C17.1705 10.8765 17.8905 11.0895 18.204 11.0895C18.441 11.0895 19.2375 10.839 20.5935 10.3425C21.873 9.88203 22.953 9.69154 23.838 9.76654C26.238 9.96004 28.0395 10.905 29.238 12.609C27.093 13.9095 26.0325 15.729 26.0535 18.0645C26.0715 19.884 26.733 21.3975 28.029 22.599C28.6019 23.1473 29.2705 23.5861 30.0015 23.8935C29.8425 24.354 29.6745 24.7935 29.4975 25.2165ZM23.997 3.57004C23.997 4.99504 23.475 6.32704 22.4385 7.55854C21.1845 9.02254 19.6695 9.87004 18.027 9.73654C18.0055 9.55734 17.995 9.37701 17.9955 9.19654C17.9955 7.82703 18.5895 6.36304 19.65 5.16454C20.178 4.55854 20.85 4.05304 21.6645 3.65104C22.4775 3.25504 23.2455 3.03604 23.9685 2.99854C23.988 3.19054 23.997 3.38104 23.997 3.57004Z" fill="#2A192B"/>
</svg>
