<svg width="153" height="49" viewBox="0 0 153 49" fill="none" xmlns="http://www.w3.org/2000/svg">
<path d="M22.624 30.072C22.624 30.024 22.664 29.872 22.744 29.616C22.84 29.344 22.952 29.024 23.08 28.656C23.208 28.272 23.344 27.864 23.488 27.432C23.648 26.984 23.792 26.568 23.92 26.184C24.048 25.8 24.152 25.472 24.232 25.2C24.328 24.912 24.376 24.728 24.376 24.648C24.376 24.472 24.248 24.384 23.992 24.384H23.872C23.744 24.384 23.632 24.344 23.536 24.264C23.44 24.184 23.392 24.032 23.392 23.808C23.392 23.664 23.424 23.544 23.488 23.448C23.552 23.336 23.68 23.24 23.872 23.16C24.08 23.08 24.368 23.024 24.736 22.992C25.104 22.944 25.584 22.92 26.176 22.92C26.88 22.92 27.44 22.936 27.856 22.968C28.272 23 28.584 23.048 28.792 23.112C29.016 23.176 29.16 23.256 29.224 23.352C29.288 23.448 29.32 23.56 29.32 23.688C29.32 24.008 29.168 24.208 28.864 24.288C28.576 24.352 28.272 24.384 27.952 24.384C27.584 24.384 27.328 24.408 27.184 24.456C27.056 24.488 26.952 24.544 26.872 24.624C26.744 24.704 26.408 25.432 25.864 26.808C25.336 28.168 24.608 30.048 23.68 32.448C23.44 33.088 23.032 33.408 22.456 33.408C22.104 33.408 21.832 33.28 21.64 33.024C21.448 32.768 21.304 32.416 21.208 31.968L19.72 25.44L17.536 31.896C17.328 32.504 16.888 32.808 16.216 32.808C15.912 32.808 15.648 32.72 15.424 32.544C15.216 32.352 15.024 32.008 14.848 31.512L12.088 23.544C12.04 23.416 11.992 23.336 11.944 23.304C11.912 23.272 11.848 23.256 11.752 23.256C11.592 23.256 11.424 23.256 11.248 23.256C11.072 23.256 10.904 23.24 10.744 23.208C10.6 23.176 10.48 23.12 10.384 23.04C10.288 22.944 10.24 22.808 10.24 22.632C10.24 22.264 10.4 22.04 10.72 21.96C11.04 21.88 11.456 21.84 11.968 21.84H14.944C15.408 21.84 15.76 21.872 16 21.936C16.256 22 16.384 22.216 16.384 22.584C16.384 22.84 16.304 23.016 16.144 23.112C15.984 23.208 15.76 23.256 15.472 23.256H14.8C14.576 23.256 14.464 23.336 14.464 23.496C14.464 23.528 14.48 23.616 14.512 23.76C14.544 23.904 14.624 24.2 14.752 24.648C14.88 25.08 15.072 25.712 15.328 26.544C15.584 27.36 15.936 28.464 16.384 29.856C16.624 29.12 16.856 28.416 17.08 27.744C17.304 27.056 17.504 26.44 17.68 25.896C17.856 25.336 18.008 24.864 18.136 24.48C18.264 24.096 18.352 23.832 18.4 23.688C18.624 22.936 19.128 22.56 19.912 22.56C20.264 22.56 20.536 22.656 20.728 22.848C20.92 23.024 21.064 23.312 21.16 23.712C21.176 23.792 21.232 24.04 21.328 24.456C21.424 24.872 21.536 25.384 21.664 25.992C21.808 26.584 21.96 27.24 22.12 27.96C22.296 28.68 22.464 29.384 22.624 30.072ZM33.6678 31.176H34.9398C35.2918 31.176 35.5718 31.24 35.7798 31.368C35.9878 31.496 36.0918 31.744 36.0918 32.112C36.0918 32.368 36.0198 32.584 35.8758 32.76C35.7478 32.92 35.5798 33 35.3718 33H30.8358C30.6438 33 30.4438 32.992 30.2358 32.976C30.0438 32.96 29.8678 32.928 29.7078 32.88C29.5638 32.816 29.4358 32.728 29.3238 32.616C29.2278 32.504 29.1798 32.344 29.1798 32.136C29.1798 31.832 29.2998 31.616 29.5398 31.488C29.7798 31.344 30.1078 31.256 30.5238 31.224C30.7798 31.192 30.9958 31.144 31.1718 31.08C31.3638 31.016 31.4678 30.896 31.4838 30.72C31.4998 30.544 31.5078 30.32 31.5078 30.048C31.5238 29.776 31.5318 29.504 31.5318 29.232C31.5478 28.944 31.5558 28.68 31.5558 28.44C31.5718 28.2 31.5798 28.016 31.5798 27.888C31.5798 27.344 31.5718 26.872 31.5558 26.472C31.5398 26.056 31.5158 25.584 31.4838 25.056C31.4678 24.832 31.4278 24.648 31.3638 24.504C31.3158 24.344 31.2038 24.264 31.0278 24.264C30.9798 24.264 30.8758 24.272 30.7158 24.288C30.5558 24.288 30.3878 24.288 30.2118 24.288C30.0358 24.288 29.8678 24.296 29.7078 24.312C29.5478 24.312 29.4438 24.312 29.3958 24.312C29.1238 24.312 28.9318 24.24 28.8198 24.096C28.7078 23.936 28.6518 23.744 28.6518 23.52C28.6518 23.2 28.7878 22.984 29.0598 22.872C29.3478 22.76 29.8518 22.68 30.5718 22.632C31.0358 22.6 31.4918 22.576 31.9398 22.56C32.3878 22.544 32.7478 22.536 33.0198 22.536C33.2598 22.536 33.4278 22.616 33.5238 22.776C33.6198 22.92 33.6678 23.12 33.6678 23.376V31.176ZM30.8118 19.08C30.8118 18.936 30.8438 18.768 30.9078 18.576C30.9718 18.384 31.0678 18.2 31.1958 18.024C31.3238 17.848 31.4918 17.704 31.6998 17.592C31.9078 17.464 32.1558 17.4 32.4438 17.4C32.8438 17.4 33.1878 17.544 33.4758 17.832C33.7638 18.104 33.9078 18.488 33.9078 18.984C33.9078 19.32 33.8518 19.6 33.7398 19.824C33.6438 20.048 33.5078 20.232 33.3318 20.376C33.1718 20.52 32.9958 20.624 32.8038 20.688C32.6118 20.752 32.4358 20.784 32.2758 20.784C31.8598 20.784 31.5078 20.624 31.2198 20.304C30.9478 19.968 30.8118 19.56 30.8118 19.08ZM38.3157 32.448C38.3317 32.576 38.3397 32.688 38.3397 32.784C38.3397 32.88 38.3397 32.976 38.3397 33.072C38.3397 33.232 38.2597 33.376 38.0997 33.504C37.9397 33.648 37.7157 33.72 37.4277 33.72C37.0597 33.72 36.8277 33.64 36.7317 33.48C36.6357 33.32 36.5877 33.128 36.5877 32.904C36.5877 32.616 36.5957 32.36 36.6117 32.136C36.6277 31.912 36.6357 31.688 36.6357 31.464C36.6357 31.144 36.6197 30.824 36.5877 30.504C36.5557 30.184 36.5397 29.832 36.5397 29.448C36.5397 28.92 36.8597 28.656 37.4997 28.656C37.6757 28.656 37.8277 28.728 37.9557 28.872C38.0997 29 38.1877 29.144 38.2197 29.304C38.2517 29.464 38.2997 29.664 38.3637 29.904C38.4277 30.144 38.5717 30.448 38.7957 30.816C39.0037 31.136 39.3237 31.408 39.7557 31.632C40.1877 31.84 40.7557 31.944 41.4597 31.944C41.9877 31.944 42.4437 31.864 42.8277 31.704C43.2277 31.528 43.4277 31.232 43.4277 30.816C43.4277 30.672 43.3957 30.528 43.3317 30.384C43.2837 30.24 43.1717 30.096 42.9957 29.952C42.8197 29.792 42.5637 29.64 42.2277 29.496C41.8917 29.352 41.4437 29.208 40.8837 29.064C40.4677 28.968 40.0277 28.848 39.5637 28.704C39.0997 28.544 38.6757 28.328 38.2917 28.056C37.9077 27.768 37.5877 27.408 37.3317 26.976C37.0757 26.544 36.9477 25.992 36.9477 25.32C36.9477 24.728 37.0517 24.224 37.2597 23.808C37.4837 23.392 37.7717 23.056 38.1237 22.8C38.4757 22.528 38.8757 22.336 39.3237 22.224C39.7717 22.096 40.2357 22.032 40.7157 22.032C41.1957 22.032 41.6037 22.08 41.9397 22.176C42.2757 22.272 42.5557 22.4 42.7797 22.56C43.0197 22.72 43.2117 22.896 43.3557 23.088C43.4997 23.264 43.6197 23.432 43.7157 23.592C43.6997 23.384 43.6837 23.168 43.6677 22.944C43.6677 22.72 43.6677 22.584 43.6677 22.536C43.6677 22.136 43.7717 21.88 43.9797 21.768C44.1877 21.656 44.4037 21.6 44.6277 21.6C44.8837 21.6 45.0917 21.672 45.2517 21.816C45.4117 21.96 45.4917 22.312 45.4917 22.872C45.4917 23.144 45.4837 23.44 45.4677 23.76C45.4677 24.08 45.4597 24.392 45.4437 24.696C45.4277 25 45.4117 25.28 45.3957 25.536C45.3797 25.776 45.3637 25.952 45.3477 26.064C45.3157 26.336 45.2437 26.56 45.1317 26.736C45.0357 26.912 44.8517 27 44.5797 27C44.3717 27 44.1797 26.928 44.0037 26.784C43.8437 26.624 43.7477 26.456 43.7157 26.28C43.6517 25.992 43.5557 25.72 43.4277 25.464C43.3157 25.192 43.1957 24.968 43.0677 24.792C42.9237 24.568 42.6917 24.344 42.3717 24.12C42.0517 23.896 41.5637 23.784 40.9077 23.784C40.2037 23.784 39.7157 23.92 39.4437 24.192C39.1717 24.464 39.0357 24.8 39.0357 25.2C39.0357 25.52 39.0997 25.792 39.2277 26.016C39.3557 26.224 39.5157 26.408 39.7077 26.568C39.9157 26.712 40.1397 26.832 40.3797 26.928C40.6197 27.008 40.8437 27.08 41.0517 27.144C41.5477 27.288 42.0597 27.432 42.5877 27.576C43.1317 27.72 43.6277 27.912 44.0757 28.152C44.5237 28.392 44.8837 28.704 45.1557 29.088C45.4437 29.456 45.5877 29.944 45.5877 30.552C45.5877 31.112 45.4677 31.584 45.2277 31.968C45.0037 32.352 44.6997 32.672 44.3157 32.928C43.9317 33.184 43.4837 33.368 42.9717 33.48C42.4757 33.592 41.9557 33.648 41.4117 33.648C40.8677 33.648 40.3317 33.576 39.8037 33.432C39.2757 33.288 38.7797 32.96 38.3157 32.448ZM54.9278 25.992C55.2158 25.992 55.3598 25.8 55.3598 25.416C55.3598 25.208 55.3038 24.984 55.1918 24.744C55.0958 24.504 54.9358 24.28 54.7118 24.072C54.5038 23.864 54.2158 23.688 53.8478 23.544C53.4958 23.4 53.0718 23.328 52.5758 23.328C52.0798 23.328 51.6398 23.408 51.2558 23.568C50.8718 23.728 50.5358 23.944 50.2478 24.216C49.9758 24.472 49.7598 24.768 49.5998 25.104C49.4558 25.424 49.3598 25.752 49.3118 26.088L54.9278 25.992ZM49.2878 27.504C49.2718 27.536 49.2638 27.584 49.2638 27.648C49.2638 27.696 49.2638 27.736 49.2638 27.768C49.2638 28.2 49.3118 28.64 49.4078 29.088C49.5038 29.536 49.6798 29.944 49.9358 30.312C50.2078 30.664 50.5678 30.952 51.0158 31.176C51.4638 31.4 52.0398 31.512 52.7438 31.512C53.1758 31.512 53.5438 31.448 53.8478 31.32C54.1678 31.192 54.4318 31.032 54.6398 30.84C54.8638 30.632 55.0398 30.408 55.1678 30.168C55.3118 29.928 55.4238 29.704 55.5038 29.496C55.5998 29.24 55.7358 29.032 55.9118 28.872C56.0878 28.696 56.3118 28.608 56.5838 28.608C56.8878 28.608 57.1278 28.672 57.3038 28.8C57.4798 28.912 57.5678 29.168 57.5678 29.568C57.5678 29.824 57.4958 30.168 57.3518 30.6C57.2078 31.016 56.9438 31.432 56.5598 31.848C56.1918 32.248 55.6878 32.6 55.0478 32.904C54.4078 33.192 53.5918 33.336 52.5998 33.336C51.7198 33.336 50.9358 33.2 50.2478 32.928C49.5598 32.656 48.9758 32.272 48.4958 31.776C48.0158 31.28 47.6478 30.68 47.3918 29.976C47.1518 29.256 47.0318 28.448 47.0318 27.552C47.0318 26.608 47.1598 25.768 47.4158 25.032C47.6878 24.28 48.0718 23.648 48.5678 23.136C49.0638 22.608 49.6478 22.208 50.3198 21.936C51.0078 21.664 51.7758 21.528 52.6238 21.528C53.5838 21.528 54.3838 21.688 55.0238 22.008C55.6798 22.312 56.1998 22.696 56.5838 23.16C56.9678 23.608 57.2398 24.08 57.3998 24.576C57.5758 25.072 57.6638 25.504 57.6638 25.872C57.6638 26.192 57.6158 26.464 57.5198 26.688C57.4238 26.912 57.2558 27.088 57.0158 27.216C56.9038 27.28 56.7758 27.328 56.6318 27.36C56.5038 27.392 56.3278 27.416 56.1038 27.432C55.8958 27.448 55.6318 27.464 55.3118 27.48C55.0078 27.48 54.6398 27.48 54.2078 27.48C54.1438 27.48 53.9838 27.48 53.7278 27.48C53.4718 27.48 53.1678 27.48 52.8158 27.48C52.4638 27.48 52.0878 27.488 51.6878 27.504C51.2878 27.504 50.9118 27.504 50.5598 27.504C50.2238 27.504 49.9358 27.504 49.6958 27.504C49.4558 27.504 49.3198 27.504 49.2878 27.504ZM59.2439 13.68C59.2439 13.392 59.3479 13.152 59.5559 12.96C59.7799 12.768 60.0519 12.672 60.3719 12.672C60.7399 12.672 61.0359 12.792 61.2599 13.032C61.4999 13.272 61.6199 13.592 61.6199 13.992C61.6199 14.184 61.5799 14.48 61.4999 14.88C61.4199 15.28 61.3079 15.688 61.1639 16.104C61.0199 16.504 60.8439 16.864 60.6359 17.184C60.4279 17.488 60.1959 17.64 59.9399 17.64C59.8599 17.64 59.7479 17.6 59.6039 17.52C59.4759 17.424 59.4119 17.32 59.4119 17.208C59.4119 17.128 59.4439 16.992 59.5079 16.8C59.5719 16.608 59.6359 16.408 59.6999 16.2C59.7799 15.976 59.8519 15.76 59.9159 15.552C59.9799 15.344 60.0119 15.176 60.0119 15.048C60.0119 14.936 59.9719 14.84 59.8919 14.76C59.8119 14.664 59.7239 14.568 59.6279 14.472C59.5319 14.376 59.4439 14.272 59.3639 14.16C59.2839 14.032 59.2439 13.872 59.2439 13.68ZM74.7991 18.888C74.7991 18.12 74.5751 17.496 74.1271 17.016C73.6951 16.536 73.1751 16.168 72.5671 15.912C71.9591 15.656 71.3351 15.488 70.6951 15.408C70.0551 15.312 69.5271 15.264 69.1111 15.264C68.7751 15.264 68.4471 15.288 68.1271 15.336C67.8071 15.368 67.5591 15.4 67.3831 15.432V23.064C67.5431 23.096 67.7111 23.12 67.8871 23.136C68.0791 23.136 68.2551 23.136 68.4151 23.136C69.0871 23.136 69.7911 23.08 70.5271 22.968C71.2791 22.856 71.9671 22.648 72.5911 22.344C73.2311 22.024 73.7591 21.592 74.1751 21.048C74.5911 20.488 74.7991 19.768 74.7991 18.888ZM67.5031 25.2H67.2631V31.488H68.9431C69.2471 31.488 69.5271 31.528 69.7831 31.608C70.0391 31.688 70.1671 31.888 70.1671 32.208C70.1671 32.304 70.1511 32.4 70.1191 32.496C70.0871 32.592 70.0151 32.68 69.9031 32.76C69.7911 32.824 69.6231 32.88 69.3991 32.928C69.1911 32.976 68.9111 33 68.5591 33H63.4951C63.0311 33 62.7351 32.944 62.6071 32.832C62.4951 32.704 62.4391 32.512 62.4391 32.256C62.4391 32.064 62.5431 31.912 62.7511 31.8C62.9591 31.688 63.3671 31.592 63.9751 31.512C64.1191 31.496 64.2551 31.472 64.3831 31.44C64.5271 31.408 64.6551 31.352 64.7671 31.272C64.8791 31.192 64.9671 31.08 65.0311 30.936C65.0951 30.792 65.1271 30.608 65.1271 30.384C65.1271 29.184 65.1351 27.976 65.1511 26.76C65.1671 25.544 65.1751 24.328 65.1751 23.112C65.1751 22.472 65.1671 21.896 65.1511 21.384C65.1511 20.856 65.1431 20.344 65.1271 19.848C65.1271 19.336 65.1111 18.824 65.0791 18.312C65.0631 17.784 65.0471 17.2 65.0311 16.56C64.9991 15.984 64.8551 15.6 64.5991 15.408C64.3591 15.216 64.0151 15.088 63.5671 15.024C62.8151 14.928 62.4391 14.64 62.4391 14.16C62.4391 13.984 62.5031 13.808 62.6311 13.632C62.7751 13.456 63.0231 13.368 63.3751 13.368C64.0151 13.368 64.5831 13.368 65.0791 13.368C65.5751 13.352 66.0631 13.344 66.5431 13.344C67.0391 13.328 67.5511 13.32 68.0791 13.32C68.6231 13.304 69.2551 13.296 69.9751 13.296C70.7111 13.296 71.4951 13.392 72.3271 13.584C73.1591 13.776 73.9271 14.088 74.6311 14.52C75.3351 14.936 75.9191 15.496 76.3831 16.2C76.8631 16.888 77.1031 17.736 77.1031 18.744C77.1031 19.736 76.9031 20.608 76.5031 21.36C76.1191 22.096 75.5911 22.72 74.9191 23.232C74.2631 23.744 73.4951 24.152 72.6151 24.456C71.7511 24.76 70.8391 24.968 69.8791 25.08C70.4711 26.04 71.0791 26.968 71.7031 27.864C71.9591 28.248 72.2311 28.648 72.5191 29.064C72.8231 29.48 73.1191 29.896 73.4071 30.312C73.6951 30.712 73.9831 31.096 74.2711 31.464C74.5591 31.832 74.8391 32.168 75.1111 32.472H77.7031C78.1191 32.472 78.4231 32.528 78.6151 32.64C78.8071 32.736 78.9031 32.92 78.9031 33.192C78.9031 33.384 78.8631 33.536 78.7831 33.648C78.7191 33.76 78.5271 33.84 78.2071 33.888C77.9031 33.952 77.4231 33.992 76.7671 34.008C76.1271 34.04 75.2311 34.056 74.0791 34.056C73.9671 34.056 73.7831 33.92 73.5271 33.648C73.2871 33.376 72.9911 33.016 72.6391 32.568C72.2871 32.104 71.9031 31.576 71.4871 30.984C71.0711 30.376 70.6391 29.744 70.1911 29.088L67.5031 25.2ZM79.7873 13.68C79.7873 13.392 79.8913 13.152 80.0993 12.96C80.3233 12.768 80.5953 12.672 80.9153 12.672C81.2833 12.672 81.5793 12.792 81.8033 13.032C82.0433 13.272 82.1633 13.592 82.1633 13.992C82.1633 14.184 82.1233 14.48 82.0433 14.88C81.9633 15.28 81.8513 15.688 81.7073 16.104C81.5633 16.504 81.3873 16.864 81.1793 17.184C80.9713 17.488 80.7393 17.64 80.4833 17.64C80.4033 17.64 80.2913 17.6 80.1473 17.52C80.0193 17.424 79.9553 17.32 79.9553 17.208C79.9553 17.128 79.9873 16.992 80.0513 16.8C80.1153 16.608 80.1793 16.408 80.2433 16.2C80.3233 15.976 80.3953 15.76 80.4593 15.552C80.5233 15.344 80.5553 15.176 80.5553 15.048C80.5553 14.936 80.5153 14.84 80.4353 14.76C80.3553 14.664 80.2673 14.568 80.1713 14.472C80.0753 14.376 79.9873 14.272 79.9073 14.16C79.8273 14.032 79.7873 13.872 79.7873 13.68ZM87.8129 24.864C88.2609 23.92 88.8449 23.208 89.5649 22.728C90.2849 22.248 91.1009 22.008 92.0129 22.008C92.7969 22.008 93.4609 22.192 94.0049 22.56C94.5489 22.928 94.9809 23.392 95.3009 23.952C95.6209 24.512 95.8529 25.128 95.9969 25.8C96.1409 26.472 96.2129 27.112 96.2129 27.72C96.2129 28.76 96.0369 29.632 95.6849 30.336C95.3489 31.04 94.9169 31.608 94.3889 32.04C93.8769 32.456 93.3089 32.76 92.6849 32.952C92.0609 33.128 91.4689 33.216 90.9089 33.216C90.4289 33.216 90.0129 33.16 89.6609 33.048C89.3089 32.952 89.0049 32.824 88.7489 32.664C88.4929 32.504 88.2689 32.32 88.0769 32.112C87.9009 31.904 87.7489 31.688 87.6209 31.464C87.5889 31.848 87.5569 32.16 87.5249 32.4C87.5089 32.64 87.4609 32.824 87.3809 32.952C87.3169 33.08 87.2129 33.168 87.0689 33.216C86.9249 33.264 86.7169 33.288 86.4449 33.288C86.1729 33.288 85.9329 33.216 85.7249 33.072C85.5169 32.928 85.4129 32.712 85.4129 32.424C85.4129 31.896 85.4209 31.416 85.4369 30.984C85.4529 30.552 85.4689 30.12 85.4849 29.688C85.5009 29.24 85.5169 28.768 85.5329 28.272C85.5489 27.76 85.5649 27.176 85.5809 26.52C85.5969 25.848 85.6049 25.072 85.6049 24.192C85.6209 23.296 85.6289 22.248 85.6289 21.048C85.6289 20.488 85.6289 19.928 85.6289 19.368C85.6289 18.792 85.6209 18.256 85.6049 17.76C85.6049 17.264 85.6049 16.824 85.6049 16.44C85.6049 16.04 85.6049 15.736 85.6049 15.528C85.6049 15.096 85.2449 14.88 84.5249 14.88H83.9489C83.6769 14.88 83.4289 14.824 83.2049 14.712C82.9649 14.6 82.8449 14.432 82.8449 14.208C82.8449 14.096 82.8689 13.992 82.9169 13.896C82.9489 13.784 83.0369 13.696 83.1809 13.632C83.3249 13.552 83.5409 13.488 83.8289 13.44C84.1169 13.392 84.5169 13.368 85.0289 13.368H87.1889C87.3329 13.368 87.4689 13.408 87.5969 13.488C87.7409 13.568 87.8129 13.816 87.8129 14.232V24.864ZM87.9569 27.744C87.9569 28.416 88.0369 28.984 88.1969 29.448C88.3569 29.912 88.5649 30.28 88.8209 30.552C89.0929 30.824 89.3969 31.024 89.7329 31.152C90.0849 31.264 90.4529 31.32 90.8369 31.32C91.1409 31.32 91.4769 31.264 91.8449 31.152C92.2129 31.04 92.5489 30.84 92.8529 30.552C93.1729 30.264 93.4369 29.88 93.6449 29.4C93.8529 28.92 93.9569 28.32 93.9569 27.6C93.9569 26.896 93.8849 26.312 93.7409 25.848C93.6129 25.384 93.4289 25.016 93.1889 24.744C92.9649 24.456 92.7009 24.256 92.3969 24.144C92.0929 24.032 91.7729 23.976 91.4369 23.976C90.7009 23.976 90.1009 24.144 89.6369 24.48C89.1889 24.8 88.8369 25.176 88.5809 25.608C88.3409 26.04 88.1729 26.464 88.0769 26.88C87.9969 27.296 87.9569 27.584 87.9569 27.744Z" fill="#2A192B"/>
<path d="M109 31.638C108.743 31.9108 108.433 32.128 108.089 32.2762C107.745 32.4245 107.375 32.5007 107 32.5H100.75C100.286 32.5 99.8408 32.3156 99.5126 31.9874C99.1844 31.6593 99 31.2141 99 30.75V18.25C99 17.284 99.784 16.5 100.75 16.5H107C107.788 16.5 108.499 16.831 109 17.363C109.257 17.0901 109.567 16.8727 109.911 16.7242C110.255 16.5758 110.625 16.4995 111 16.5H117.25C118.216 16.5 119 17.284 119 18.25V30.75C119 31.2141 118.816 31.6593 118.487 31.9874C118.159 32.3156 117.714 32.5 117.25 32.5H111C110.625 32.5005 110.255 32.4242 109.911 32.2758C109.567 32.1274 109.257 31.9099 109 31.637M100.5 18.25V30.75C100.5 30.888 100.612 31 100.75 31H107C107.69 31 108.25 30.44 108.25 29.75V19.25C108.25 18.56 107.69 18 107 18H100.75C100.684 18 100.62 18.0263 100.573 18.0732C100.526 18.1201 100.5 18.1837 100.5 18.25ZM109.75 29.75C109.75 30.44 110.31 31 111 31H117.25C117.316 31 117.38 30.9737 117.427 30.9268C117.474 30.8799 117.5 30.8163 117.5 30.75V18.25C117.5 18.1837 117.474 18.1201 117.427 18.0732C117.38 18.0263 117.316 18 117.25 18H111C110.31 18 109.75 18.56 109.75 19.25V29.75Z" fill="#AC9BAF"/>
<path d="M124.672 26.52C125.488 25.752 126.144 25.152 126.64 24.72C127.152 24.288 127.408 24.032 127.408 23.952C127.408 23.888 127.368 23.856 127.288 23.856H127.048C126.824 23.856 126.648 23.808 126.52 23.712C126.408 23.616 126.352 23.432 126.352 23.16C126.352 22.84 126.568 22.616 127 22.488C127.432 22.36 128.192 22.296 129.28 22.296C130.496 22.296 131.352 22.336 131.848 22.416C132.344 22.496 132.592 22.672 132.592 22.944C132.592 23.072 132.56 23.176 132.496 23.256C132.432 23.336 132.312 23.408 132.136 23.472C131.976 23.536 131.744 23.6 131.44 23.664C131.136 23.712 130.752 23.768 130.288 23.832C130.112 23.864 129.92 23.92 129.712 24C129.504 24.064 129.36 24.136 129.28 24.216L126.904 26.472C127.432 26.472 127.88 26.536 128.248 26.664C128.632 26.792 128.936 27 129.16 27.288C129.4 27.576 129.576 27.96 129.688 28.44C129.8 28.92 129.856 29.512 129.856 30.216V31.368C129.856 31.736 129.872 32.032 129.904 32.256C129.936 32.464 129.976 32.624 130.024 32.736C130.072 32.832 130.128 32.896 130.192 32.928C130.256 32.944 130.32 32.952 130.384 32.952C130.56 32.952 130.648 32.872 130.648 32.712C130.648 32.072 130.968 31.752 131.608 31.752C131.96 31.752 132.2 31.856 132.328 32.064C132.472 32.272 132.544 32.512 132.544 32.784C132.544 33.376 132.344 33.88 131.944 34.296C131.544 34.712 131.008 34.92 130.336 34.92C129.536 34.92 128.912 34.68 128.464 34.2C128.016 33.736 127.792 32.936 127.792 31.8V30.216C127.792 29.704 127.736 29.296 127.624 28.992C127.512 28.688 127.352 28.464 127.144 28.32C126.936 28.16 126.68 28.056 126.376 28.008C126.072 27.96 125.736 27.936 125.368 27.936L124.672 28.56V31.344H125.8C126.136 31.344 126.376 31.44 126.52 31.632C126.68 31.808 126.76 32.04 126.76 32.328C126.76 32.872 126.448 33.144 125.824 33.144C125.632 33.144 125.4 33.136 125.128 33.12C124.872 33.104 124.44 33.096 123.832 33.096C123.576 33.096 123.272 33.104 122.92 33.12C122.584 33.136 122.304 33.144 122.08 33.144C121.808 33.144 121.536 33.096 121.264 33C121.008 32.888 120.88 32.664 120.88 32.328C120.88 32.104 120.984 31.92 121.192 31.776C121.4 31.616 121.736 31.472 122.2 31.344C122.28 31.312 122.336 31.168 122.368 30.912C122.4 30.656 122.416 30.368 122.416 30.048C122.432 29.376 122.44 28.816 122.44 28.368C122.456 27.92 122.472 27.496 122.488 27.096C122.504 26.696 122.512 26.272 122.512 25.824C122.528 25.36 122.536 24.792 122.536 24.12C122.536 23 122.528 22.008 122.512 21.144C122.512 20.264 122.504 19.488 122.488 18.816C122.472 18.128 122.456 17.52 122.44 16.992C122.44 16.464 122.44 15.992 122.44 15.576C122.44 15.208 122.264 15.024 121.912 15.024H120.952C120.856 15.024 120.744 15.016 120.616 15C120.488 14.984 120.376 14.952 120.28 14.904C120.168 14.856 120.072 14.792 119.992 14.712C119.912 14.632 119.872 14.528 119.872 14.4C119.872 14.288 119.92 14.176 120.016 14.064C120.112 13.936 120.312 13.824 120.616 13.728C120.904 13.632 121.32 13.552 121.864 13.488C122.424 13.424 123.16 13.392 124.072 13.392C124.472 13.392 124.672 13.624 124.672 14.088V26.52ZM135.546 32.448C135.562 32.576 135.57 32.688 135.57 32.784C135.57 32.88 135.57 32.976 135.57 33.072C135.57 33.232 135.49 33.376 135.33 33.504C135.17 33.648 134.946 33.72 134.658 33.72C134.29 33.72 134.058 33.64 133.962 33.48C133.866 33.32 133.818 33.128 133.818 32.904C133.818 32.616 133.826 32.36 133.842 32.136C133.858 31.912 133.866 31.688 133.866 31.464C133.866 31.144 133.85 30.824 133.818 30.504C133.786 30.184 133.77 29.832 133.77 29.448C133.77 28.92 134.09 28.656 134.73 28.656C134.906 28.656 135.058 28.728 135.186 28.872C135.33 29 135.418 29.144 135.45 29.304C135.482 29.464 135.53 29.664 135.594 29.904C135.658 30.144 135.802 30.448 136.026 30.816C136.234 31.136 136.554 31.408 136.986 31.632C137.418 31.84 137.986 31.944 138.69 31.944C139.218 31.944 139.674 31.864 140.058 31.704C140.458 31.528 140.658 31.232 140.658 30.816C140.658 30.672 140.626 30.528 140.562 30.384C140.514 30.24 140.402 30.096 140.226 29.952C140.05 29.792 139.794 29.64 139.458 29.496C139.122 29.352 138.674 29.208 138.114 29.064C137.698 28.968 137.258 28.848 136.794 28.704C136.33 28.544 135.906 28.328 135.522 28.056C135.138 27.768 134.818 27.408 134.562 26.976C134.306 26.544 134.178 25.992 134.178 25.32C134.178 24.728 134.282 24.224 134.49 23.808C134.714 23.392 135.002 23.056 135.354 22.8C135.706 22.528 136.106 22.336 136.554 22.224C137.002 22.096 137.466 22.032 137.946 22.032C138.426 22.032 138.834 22.08 139.17 22.176C139.506 22.272 139.786 22.4 140.01 22.56C140.25 22.72 140.442 22.896 140.586 23.088C140.73 23.264 140.85 23.432 140.946 23.592C140.93 23.384 140.914 23.168 140.898 22.944C140.898 22.72 140.898 22.584 140.898 22.536C140.898 22.136 141.002 21.88 141.21 21.768C141.418 21.656 141.634 21.6 141.858 21.6C142.114 21.6 142.322 21.672 142.482 21.816C142.642 21.96 142.722 22.312 142.722 22.872C142.722 23.144 142.714 23.44 142.698 23.76C142.698 24.08 142.69 24.392 142.674 24.696C142.658 25 142.642 25.28 142.626 25.536C142.61 25.776 142.594 25.952 142.578 26.064C142.546 26.336 142.474 26.56 142.362 26.736C142.266 26.912 142.082 27 141.81 27C141.602 27 141.41 26.928 141.234 26.784C141.074 26.624 140.978 26.456 140.946 26.28C140.882 25.992 140.786 25.72 140.658 25.464C140.546 25.192 140.426 24.968 140.298 24.792C140.154 24.568 139.922 24.344 139.602 24.12C139.282 23.896 138.794 23.784 138.138 23.784C137.434 23.784 136.946 23.92 136.674 24.192C136.402 24.464 136.266 24.8 136.266 25.2C136.266 25.52 136.33 25.792 136.458 26.016C136.586 26.224 136.746 26.408 136.938 26.568C137.146 26.712 137.37 26.832 137.61 26.928C137.85 27.008 138.074 27.08 138.282 27.144C138.778 27.288 139.29 27.432 139.818 27.576C140.362 27.72 140.858 27.912 141.306 28.152C141.754 28.392 142.114 28.704 142.386 29.088C142.674 29.456 142.818 29.944 142.818 30.552C142.818 31.112 142.698 31.584 142.458 31.968C142.234 32.352 141.93 32.672 141.546 32.928C141.162 33.184 140.714 33.368 140.202 33.48C139.706 33.592 139.186 33.648 138.642 33.648C138.098 33.648 137.562 33.576 137.034 33.432C136.506 33.288 136.01 32.96 135.546 32.448Z" fill="#3B2D3E"/>
</svg>
